<svg width="31" height="31" viewBox="0 0 31 31" fill="none" xmlns="http://www.w3.org/2000/svg">
<path fill-rule="evenodd" clip-rule="evenodd" d="M0.732455 1.73252C1.20127 1.26384 1.83704 1.00055 2.49995 1.00055C3.16286 1.00055 3.79863 1.26384 4.26745 1.73252L15 12.465L25.7325 1.73252C25.9631 1.49374 26.2389 1.30329 26.5439 1.17227C26.849 1.04124 27.177 0.972278 27.509 0.969394C27.8409 0.966509 28.1701 1.02976 28.4773 1.15547C28.7846 1.28117 29.0637 1.4668 29.2984 1.70153C29.5332 1.93626 29.7188 2.21539 29.8445 2.52263C29.9702 2.82988 30.0335 3.15907 30.0306 3.49102C30.0277 3.82297 29.9587 4.15102 29.8277 4.45603C29.6967 4.76104 29.5062 5.0369 29.2675 5.26752L18.535 16L29.2675 26.7325C29.7228 27.204 29.9748 27.8355 29.9691 28.491C29.9634 29.1465 29.7005 29.7735 29.237 30.2371C28.7735 30.7006 28.1464 30.9635 27.491 30.9692C26.8355 30.9749 26.204 30.7229 25.7325 30.2675L15 19.535L4.26745 30.2675C3.79595 30.7229 3.16444 30.9749 2.50895 30.9692C1.85346 30.9635 1.22643 30.7006 0.762908 30.2371C0.299388 29.7735 0.0364647 29.1465 0.0307686 28.491C0.0250726 27.8355 0.27706 27.204 0.732455 26.7325L11.465 16L0.732455 5.26752C0.263777 4.7987 0.000488281 4.16293 0.000488281 3.50002C0.000488281 2.83711 0.263777 2.20134 0.732455 1.73252Z" fill="white"/>
</svg>
