<svg width="39" height="39" viewBox="0 0 39 39" fill="none" xmlns="http://www.w3.org/2000/svg">
<path fill-rule="evenodd" clip-rule="evenodd" d="M19.5 0.950012C20.2028 0.950012 20.8768 1.22921 21.3738 1.72618C21.8708 2.22315 22.15 2.89719 22.15 3.60001V16.85H35.4C36.1028 16.85 36.7768 17.1292 37.2738 17.6262C37.7708 18.1232 38.05 18.7972 38.05 19.5C38.05 20.2028 37.7708 20.8769 37.2738 21.3738C36.7768 21.8708 36.1028 22.15 35.4 22.15H22.15V35.4C22.15 36.1028 21.8708 36.7769 21.3738 37.2738C20.8768 37.7708 20.2028 38.05 19.5 38.05C18.7971 38.05 18.1231 37.7708 17.6261 37.2738C17.1291 36.7769 16.85 36.1028 16.85 35.4V22.15H3.59995C2.89713 22.15 2.22309 21.8708 1.72612 21.3738C1.22915 20.8769 0.949951 20.2028 0.949951 19.5C0.949951 18.7972 1.22915 18.1232 1.72612 17.6262C2.22309 17.1292 2.89713 16.85 3.59995 16.85H16.85V3.60001C16.85 2.89719 17.1291 2.22315 17.6261 1.72618C18.1231 1.22921 18.7971 0.950012 19.5 0.950012Z" fill="white"/>
</svg>
