<svg width="18" height="28" viewBox="0 0 18 28" fill="none" xmlns="http://www.w3.org/2000/svg">
<path fill-rule="evenodd" clip-rule="evenodd" d="M1.42045 27.1796C0.89553 26.6545 0.600647 25.9424 0.600647 25.2C0.600647 24.4575 0.89553 23.7454 1.42045 23.2204L10.6409 14L1.42045 4.77956C0.910407 4.25147 0.628181 3.54418 0.634561 2.81003C0.640941 2.07588 0.935414 1.37361 1.45456 0.854465C1.9737 0.335322 2.67598 0.0408482 3.41013 0.0344686C4.14428 0.0280891 4.85156 0.310315 5.37965 0.820357L16.5796 12.0204C17.1046 12.5454 17.3995 13.2575 17.3995 14C17.3995 14.7424 17.1046 15.4545 16.5796 15.9796L5.37965 27.1796C4.85457 27.7045 4.14251 27.9994 3.40005 27.9994C2.65759 27.9994 1.94553 27.7045 1.42045 27.1796Z" fill="white"/>
</svg>
