<svg width="29" height="18" viewBox="0 0 29 18" fill="none" xmlns="http://www.w3.org/2000/svg">
<path fill-rule="evenodd" clip-rule="evenodd" d="M27.3796 16.7796C26.8545 17.3045 26.1424 17.5994 25.4 17.5994C24.6575 17.5994 23.9454 17.3045 23.4204 16.7796L14.2 7.5592L4.97957 16.7796C4.45148 17.2896 3.7442 17.5719 3.01005 17.5655C2.27589 17.5591 1.57362 17.2646 1.05448 16.7455C0.535334 16.2263 0.24086 15.5241 0.234481 14.7899C0.228101 14.0558 0.510327 13.3485 1.02037 12.8204L12.2204 1.6204C12.7454 1.09548 13.4575 0.800598 14.2 0.800598C14.9424 0.800598 15.6545 1.09548 16.1796 1.6204L27.3796 12.8204C27.9045 13.3455 28.1994 14.0575 28.1994 14.8C28.1994 15.5425 27.9045 16.2545 27.3796 16.7796Z" fill="white"/>
</svg>
