<svg width="43" height="43" viewBox="0 0 43 43" fill="none" xmlns="http://www.w3.org/2000/svg">
<path fill-rule="evenodd" clip-rule="evenodd" d="M16.2 5.6C13.3888 5.6 10.6926 6.71679 8.70472 8.70467C6.71683 10.6926 5.60005 13.3887 5.60005 16.2C5.60005 19.0113 6.71683 21.7074 8.70472 23.6953C10.6926 25.6832 13.3888 26.8 16.2 26.8C19.0113 26.8 21.7075 25.6832 23.6954 23.6953C25.6833 21.7074 26.8 19.0113 26.8 16.2C26.8 13.3887 25.6833 10.6926 23.6954 8.70467C21.7075 6.71679 19.0113 5.6 16.2 5.6ZM0.300049 16.2C0.29973 13.6976 0.890051 11.2305 2.023 8.99927C3.15595 6.76805 4.79954 4.83574 6.8201 3.3595C8.84065 1.88326 11.1811 0.904766 13.6511 0.503612C16.1212 0.102457 18.651 0.289964 21.0349 1.05088C23.4188 1.8118 25.5894 3.12464 27.3702 4.88264C29.1511 6.64063 30.4918 8.79414 31.2835 11.168C32.0751 13.5419 32.2952 16.0691 31.926 18.5441C31.5568 21.0191 30.6086 23.372 29.1586 25.4114L41.9236 38.1765C42.4063 38.6762 42.6734 39.3456 42.6674 40.0405C42.6613 40.7353 42.3826 41.3999 41.8913 41.8913C41.4 42.3826 40.7353 42.6613 40.0405 42.6673C39.3457 42.6734 38.6763 42.4063 38.1765 41.9236L25.4141 29.1612C23.0354 30.8526 20.2369 31.8566 17.3254 32.0632C14.414 32.2698 11.5018 31.671 8.90804 30.3324C6.3143 28.9938 4.13907 26.967 2.62072 24.4742C1.10236 21.9814 0.299482 19.1188 0.300049 16.2Z" fill="white"/>
</svg>
