<svg width="36" height="38" viewBox="0 0 36 38" fill="none" xmlns="http://www.w3.org/2000/svg">
<path fill-rule="evenodd" clip-rule="evenodd" d="M18 15.5C19.9891 15.5 21.8968 14.7098 23.3033 13.3033C24.7098 11.8968 25.5 9.98912 25.5 8C25.5 6.01088 24.7098 4.10322 23.3033 2.6967C21.8968 1.29018 19.9891 0.5 18 0.5C16.0109 0.5 14.1032 1.29018 12.6967 2.6967C11.2902 4.10322 10.5 6.01088 10.5 8C10.5 9.98912 11.2902 11.8968 12.6967 13.3033C14.1032 14.7098 16.0109 15.5 18 15.5ZM0.5 38C0.5 35.7019 0.952651 33.4262 1.83211 31.303C2.71157 29.1798 4.00061 27.2507 5.62563 25.6256C7.25066 24.0006 9.17984 22.7116 11.303 21.8321C13.4262 20.9527 15.7019 20.5 18 20.5C20.2981 20.5 22.5738 20.9527 24.697 21.8321C26.8202 22.7116 28.7493 24.0006 30.3744 25.6256C31.9994 27.2507 33.2884 29.1798 34.1679 31.303C35.0474 33.4262 35.5 35.7019 35.5 38H0.5Z" fill="black"/>
</svg>
